<mxfile host="app.diagrams.net" modified="2023-11-01T00:12:08.136Z" agent="Mozilla/5.0 (Windows NT 10.0; Win64; x64) AppleWebKit/537.36 (KHTML, like Gecko) Chrome/118.0.0.0 Safari/537.36" version="22.0.8" etag="bG81J70-9Qc0dYs_5UQv" type="github">
  <diagram name="Page-1" id="nr9xCBMrP-_WhvVUaL2g">
    <mxGraphModel>
      <root>
        <mxCell id="0" />
        <mxCell id="1" parent="0" />
        <mxCell id="2" value="Pengisian formulir pencatatan data oleh petugas akademik" style="whiteSpace=wrap;strokeWidth=2;" vertex="1" parent="1">
          <mxGeometry width="437" height="34" as="geometry" />
        </mxCell>
        <mxCell id="3" value="Verifikasi data yang telah diisi oleh petugas akademik" style="whiteSpace=wrap;strokeWidth=2;" vertex="1" parent="1">
          <mxGeometry x="487" width="402" height="34" as="geometry" />
        </mxCell>
        <mxCell id="4" value="Penyimpanan data ke dalam database sistem informasi akademik" style="whiteSpace=wrap;strokeWidth=2;" vertex="1" parent="1">
          <mxGeometry x="939" width="482" height="34" as="geometry" />
        </mxCell>
        <mxCell id="5" value="Pengiriman notifikasi ke email petugas akademik tentang status pencatatan data" style="whiteSpace=wrap;strokeWidth=2;" vertex="1" parent="1">
          <mxGeometry x="1471" width="596" height="34" as="geometry" />
        </mxCell>
        <mxCell id="6" value="" style="curved=1;startArrow=none;endArrow=block;exitX=1.0001310789339601;exitY=0.4950980579151827;entryX=0.00014249127895677862;entryY=0.4950980579151827;" edge="1" parent="1" source="2" target="3">
          <mxGeometry relative="1" as="geometry">
            <Array as="points" />
          </mxGeometry>
        </mxCell>
        <mxCell id="7" value="" style="curved=1;startArrow=none;endArrow=block;exitX=0.9998445273631841;exitY=0.4950980579151827;entryX=-0.00012966804979253112;entryY=0.4950980579151827;" edge="1" parent="1" source="3" target="4">
          <mxGeometry relative="1" as="geometry">
            <Array as="points" />
          </mxGeometry>
        </mxCell>
        <mxCell id="8" value="" style="curved=1;startArrow=none;endArrow=block;exitX=1.000216092311495;exitY=0.4950980579151827;entryX=0.00017475921835675336;entryY=0.4950980579151827;" edge="1" parent="1" source="4" target="5">
          <mxGeometry relative="1" as="geometry">
            <Array as="points" />
          </mxGeometry>
        </mxCell>
      </root>
    </mxGraphModel>
  </diagram>
</mxfile>
